<svg width="20" height="20" viewBox="0 0 20 20" fill="none" xmlns="http://www.w3.org/2000/svg">
<path d="M16.3833 3.32506C14.1833 1.82506 11.4667 2.52506 9.99999 4.24172C8.53332 2.52506 5.81666 1.81672 3.61666 3.32506C2.44999 4.12506 1.71666 5.47506 1.66666 6.90006C1.54999 10.1334 4.41666 12.7251 8.79166 16.7001L8.87499 16.7751C9.50832 17.3501 10.4833 17.3501 11.1167 16.7667L11.2083 16.6834C15.5833 12.7167 18.4417 10.1251 18.3333 6.89172C18.2833 5.47506 17.55 4.12506 16.3833 3.32506ZM10.0833 15.4584L9.99999 15.5417L9.91666 15.4584C5.94999 11.8667 3.33332 9.49172 3.33332 7.08339C3.33332 5.41672 4.58332 4.16672 6.24999 4.16672C7.53332 4.16672 8.78332 4.99172 9.22499 6.13339H10.7833C11.2167 4.99172 12.4667 4.16672 13.75 4.16672C15.4167 4.16672 16.6667 5.41672 16.6667 7.08339C16.6667 9.49172 14.05 11.8667 10.0833 15.4584Z" fill="#D9D9D9"/>
</svg>
